<svg id="Layer_1" enable-background="new 0 0 512 512" height="512" viewBox="0 0 512 512" width="512" xmlns="http://www.w3.org/2000/svg"><g id="XMLID_251_"><path id="XMLID_254_" d="m467.2 358.8 8.3 24.5-16.9 60.7-11.4-30.4z" fill="#b73939"/><path id="XMLID_4_" d="m447.2 414h-407.7l-5 30h424.1z" fill="#cc4340"/><path id="XMLID_1_" d="m405 359-319 10.6-46.5 44.4h407.7l20-55z" fill="#ed5950"/></g><path d="m287.9 42.8c-6.6-.5-10.5-.4-10.5-.4 3.2 14 3.2 25.6 1 35.2-1.2 5.6-3.4 11-6.3 16-3.1 5.2-7.1 9.8-11.8 13.7v.1s12.5 4.5 30.6 12.7l15.9-34.8z" fill="#e94253"/><path d="m279.9 78.4c4.6 0 8.4 3.8 8.4 8.4s-3.8 8.4-8.4 8.4-8.4-3.8-8.4-8.4c0-4.7 3.8-8.4 8.4-8.4z" fill="#ea983f"/><path d="m448.9 173.8c0 4.1-3.4 7.5-7.5 7.5 0 0 0 0-.1 0-92.3-1.2-120 112.4-120 112.4-2.6-12.5-9.7-23.7-19.8-31.5.2-.8 13-44.3 51.6-72.6 8.4-6.2 17.6-11.3 27.4-15.1 8.6-3.4 17.6-5.8 26.7-7.1 8.7-1.3 17.6-1.8 26.4-1.5 2.8.1 5.7.2 8.6.5 3.7.2 6.7 3.5 6.7 7.4z" fill="#d8a588"/><path d="m441.2 229.7c20 34.4 6.4 90.3-32.3 126.3-2.2 2.1-4.5 4.1-6.9 6-1-3.5-4.2-5.9-7.9-5.9-.9 0-1.8.1-2.6.5 8.1-6.7 12.7-16.7 12.6-27.3-.1-3.7-1.9-7.1-5-9.2l.3-.4c0-16.8-13.6-30.3-30.3-30.3-16.8 0-30.3 13.6-30.3 30.3l.2.3c-3.4 2.2-5.4 6-5.2 10 .4 9.7 3 22.6 14.1 27.9-2.5-.4-5 .9-6.2 3.2-1.1 2-2.6 4.8-4.6 8.1-.8 1.3-1.6 2.6-2.5 3.8-4.7 6.9-10.2 13.3-16.3 18.9-5.9 5.4-12.4 10.2-19.4 14.1-14 7.9-29.5 12.6-45.5 13.8-12.9 1-25.9-.5-38.3-4.2-13.1-3.9-25.3-10.4-35.9-19-32.4-26.1-31.6-60.6-26.7-82.1 1.5-7 3.8-13.8 6.8-20.3 3.1 15 9.9 29 19.8 40.8 53.3 63.6 131.2 37.7 142.6-18.2 1.5-7.6 1.5-15.5-.1-23 0 0 27.8-113.6 120-112.4-.4-.2-20 14.5-.4 48.3z" fill="#efbd9c"/><path d="m309.3 45.1c6.5 1.3 12.9 2.9 19.3 4.9 7.1 2.2 14 4.8 20.8 7.9 5.8 2.6 11.4 5.6 16.8 8.9 5.6 3.4 10.9 7.1 16 11.2 4.4 3.5 8.5 7.3 12.4 11.2 17.5 17.9 32 42.6 38.9 76.5v.1c-8.8-.3-17.7.2-26.4 1.5l-7.6-47.7c-.3-2.2-2.2-3.8-4.4-3.8l-41-.6-14.4-31.9c-.8-1.8-2.7-2.9-4.7-2.6l-29.5 3.7-19-42.4c7.6.6 15.2 1.6 22.8 3.1z" fill="#ea983f"/><path d="m399.4 119.6 7.6 47.7c-9.1 1.4-18.1 3.8-26.7 7.1-12.7-10.9-26.3-20.7-40.6-29.2l14.3-30.1 41 .6c2.2.1 4.1 1.7 4.4 3.9z" fill="#e94253"/><path d="m354.5 318.1h38.3c6.2 0 11.3 5 11.4 11.2.1 10.5-4.5 20.6-12.6 27.3-13.4 4.8-34.6 2.5-43.7 1.2-11-5.3-13.7-18.2-14.1-27.9-.2-4 1.8-7.8 5.2-10 1.8-1.2 4-1.8 6.2-1.8z" fill="#f5dac5"/><path d="m402 362c1.1 3.7-.4 7.6-3.8 9.6-.6.3-1.2.6-1.8 1-26.1 13.2-61.9.4-61.9.4.8-1.2 1.7-2.5 2.5-3.8 2-3.2 3.5-6 4.6-8.1 1.2-2.3 3.7-3.5 6.2-3.2 9 1.3 30.2 3.5 43.7-1.2.8-.3 1.7-.5 2.6-.5 3.7-.1 6.9 2.3 7.9 5.8z" fill="#f8d361"/><path d="m399.5 319.6-.3.4c-1.9-1.3-4.2-2-6.5-2h-47.5c-2.2 0-4.3.6-6.2 1.8l-.2-.3c0-16.8 13.6-30.3 30.3-30.4 16.8.2 30.4 13.7 30.4 30.5z" fill="#ea983f"/><path d="m394.4 56.5c3.9 5.4 5.3 12.1 3.8 18.6l-3 13.4-.7.7c-3.9-4-8-7.8-12.4-11.2 3.6-15.7 12.3-21.5 12.3-21.5z" fill="#f9d438"/><path d="m298.8 405.9c7-4 13.5-8.7 19.4-14.1 6.2-5.6 11.6-12 16.3-18.9s35.9 12.9 61.9-.4c1.4 13.9-1.3 27.9-7.6 40.3-7 13.6-17.8 24.7-30.1 33.4-15.4 10.8-32.9 18.4-51.3 22.2-36.2 7.1-64.3-21.1-64.3-21.1 8.3-6.5 12.3-17.2 10.1-27.6 16-1.2 31.6-5.9 45.6-13.8z" fill="#50b568"/><path d="m393.2 54.9c.4.5.8 1 1.2 1.5 0 0-8.7 5.8-12.3 21.4-5.1-4.1-10.4-7.8-16-11.2 3.1-14 11.1-21.1 15.1-22.9 4.4 3.4 8.4 7.1 12 11.2z" fill="#edb740"/><path d="m375.6 132.8c4.6 0 8.4 3.8 8.4 8.4s-3.8 8.4-8.4 8.4-8.4-3.8-8.4-8.4c0-4.7 3.8-8.4 8.4-8.4z" fill="#ea983f"/><path d="m381 15.1c12.3 20-2.9 26.4-2.9 26.4-5-3.4-10.4-6.3-16-8.6-1.1-.5-2.3-.9-3.5-1.4 0 .1 0-16.4 22.4-16.4z" fill="#eadf53"/><path d="m380.3 174.4c-9.7 3.8-18.9 8.9-27.4 15.1-32.7-30.6-86.2-52.9-111.8-62.5-8.7-3.2-14.2-5-14.5-5.1 8.8-2.1 21.6-6.6 32.3-15.6v.1s12.5 4.5 30.6 12.7c17.2 7.7 34 16.5 50.2 26.1 14.4 8.6 28 18.3 40.6 29.2z" fill="#ea983f"/><path d="m378.1 41.5c1.1.8 2.2 1.5 3.2 2.3-4.1 1.8-12 8.9-15.1 22.9-5.4-3.3-11.1-6.2-16.8-8.8.6-9.7 5.2-18.8 12.8-24.9 5.5 2.2 10.9 5.1 15.9 8.5z" fill="#f9d438"/><path d="m358.6 31.6c1.2.4 2.4.9 3.5 1.4-7.6 6.2-12.2 15.2-12.8 24.9-6.8-3.1-13.7-5.7-20.8-7.9 2.2-18 11-22.8 11.5-23.1 6.4 1 12.6 2.5 18.6 4.7z" fill="#edb740"/><path d="m339.6 83.3 14.4 31.9-14.3 30.1c-16.2-9.7-32.9-18.4-50.2-26.1l15.9-34.8 29.5-3.7c2-.3 3.9.8 4.7 2.6z" fill="#50b568"/><path d="m340.1 26.9c-.5.3-9.4 5.1-11.5 23.1-6.3-2-12.8-3.6-19.3-4.9 3.5-10.1 13.4-20 24-19.1 2.3.3 4.6.6 6.8.9z" fill="#f9d438"/><path d="m324.4 101.3c4.6 0 8.4 3.8 8.4 8.4s-3.8 8.4-8.4 8.4-8.4-3.8-8.4-8.4c0-4.6 3.8-8.4 8.4-8.4z" fill="#ea983f"/><path d="m276.5 330.8c2.9-1.8 5.3-4.1 7.1-7 3.7-5.4 5-10.1 4.9-14.2-.5-17.4-26.3-17.2-27.4.2-.4 7.2 3 14.9 15.4 21zm24.9-68.7c10.2 7.8 17.2 19 19.8 31.5 1.6 7.6 1.7 15.4.1 23-11.3 55.9-89.3 81.9-142.6 18.2-9.8-11.8-16.6-25.8-19.8-40.8-.3-1.4-.6-2.9-.9-4.3-3.9-22.5-1-46.3 5-68.4 2.5-9 5.4-17.9 8.8-26.6.3-.4 5.6-6.9 16.2-10 3.9-1.2 8-1.7 12.1-1.7 0 0 9.3-40.4 40.8-56 25.6 9.5 79.1 31.9 111.8 62.5-38.3 28.3-51.1 71.8-51.3 72.6z" fill="#f5dac5"/><path d="m268.4 493-19.1-8.6c-1.1-.5-2.2-1.1-3.2-1.8-10.7-7-14.1-21.1-7.9-32.2 1.7-.9 3.4-1.9 4.9-3.1s28.1 28.1 64.3 21.1l-7.8 14.2c-6.1 11.1-19.7 15.6-31.2 10.4z" fill="#f5dac5"/><path d="m288.6 309.7c.1 4.1-1.2 8.9-4.9 14.2-1.8 2.8-4.3 5.2-7.1 7-12.5-6.1-15.9-13.8-15.4-21 1.1-17.4 26.8-17.6 27.4-.2z" fill="#d8a588"/><path d="m227.7 123c-3.4.9-6.9 1.5-10.4 1.9 0-1.6-.5-3.1-1.3-4.4 0 0 37.3-3.5 29.6-51-40.1 7-36.2 47.5-36.2 47.5-4.4 0-8 3.6-7.9 8-1.1-4.5-1.8-9-2.2-13.6-5.5-66.5 75.1-78.8 75.1-78.8 1.1 3.5 2 6.9 2.8 10.1 3.2 14 3.2 25.6 1 35.2-1.2 5.6-3.4 11-6.3 16-3.1 5.2-7.1 9.8-11.8 13.7-10.9 8.8-23.7 13.2-32.4 15.4z" fill="#50b568"/><path d="m226.6 456.1c-13.8 6.8-30.6 1.2-37.4-12.6-.4-.7-.7-1.5-1-2.2l-.8-2c9.7-4.7 21.4-12.4 27.4-23.7 12.4 3.7 25.4 5.1 38.3 4.2 2.1 10.4-1.8 21.1-10.1 27.6-1.5 1.2-3.1 2.2-4.9 3.1-3.6 1.7-7.5 3.6-11.5 5.6z" fill="#f5dac5"/><path d="m245.5 69.4c7.7 47.5-29.6 51-29.6 51-1.5-2.2-3.9-3.5-6.6-3.5 0 0-3.9-40.5 36.2-47.5z" fill="#eadf53"/><path d="m226.7 122c-3.4.9-6.9 1.5-10.4 1.9l-11.5 7.1s-6 8.7-13.7 22.9c-7.2 13.2-13.6 26.9-19.1 40.9.3-.4 5.6-6.9 16.2-10 3.9-1.2 8-1.7 12.1-1.7 0 0 9.3-40.4 40.8-56-8.6-3.3-14.1-5-14.4-5.1z" fill="#e94253"/><path d="m84.7 368.6c-.8-18.4 3-36.1 9.6-48.1 4.7-8.5 10.2-13.5 16-16.1 19.7-8.8 41.9 10.1 41.9 10.1-4.8 21.5-5.6 56 26.7 82.1 10.6 8.6 22.8 15 35.9 19-6.1 11.3-17.8 19-27.4 23.7-5 2.5-10.2 4.5-15.5 6.1-9.1.7-18.2.2-27.2-1.4-22.4-4.2-37.6-16-47-31.1-8.3-13.3-12.3-29-13-44.3z" fill="#50b568"/><path d="m198.2 110.2h-.3c-1.3-.3-66.6-14.4-84.3 46.6 3.9-8.5 9.8-15.5 17.4-19.4 20.5-10.5 46.7-3.7 60.1 16.4 7.8-14.2 13.7-22.9 13.7-22.9z" fill="#d8a588"/><path d="m191 153.9c-7.2 13.2-13.6 26.9-19.1 40.9-3.4 8.7-6.3 17.6-8.8 26.6-7.6-1.7-15.2 2.7-17.4 10.2l-2.8 9.6c-.3 1-1.3 1.5-2.2 1.3-.7-.2-1.2-.8-1.3-1.4l-1.1-13.8c-.8-10.7-10.1-18.7-20.8-17.9-1.6.1-3.1.4-4.6.9-7.7-15.4-7.1-37 .5-53.3 3.9-8.5 9.8-15.5 17.4-19.4 20.6-10.6 46.8-3.9 60.2 16.3z" fill="#efbd9c"/><path d="m145.9 231.5c2.2-7.5 9.8-11.9 17.4-10.2-6 22.2-9 46-5 68.4-21.1 6.9-34.7 3-43.4-5.9-13.6-13.8-15.4-39.5-15-55.6.2-10.7 9-19.2 19.8-19.1 10 .2 18.3 8 19 17.9l1.1 13.8c.2 1 1.1 1.6 2.1 1.5.7-.1 1.3-.6 1.4-1.3z" fill="#f9dfcd"/><path d="m158.2 289.8c.2 1.5.5 2.9.9 4.3-3 6.5-5.3 13.3-6.8 20.3 0 0-22.3-18.9-41.9-10.1v-.1s-5.6-13.1 4.3-20.2l.2-.1c8.6 8.8 22.2 12.7 43.3 5.9z" fill="#f8d361"/><path d="m215.9 119.4c.9 1.3 1.3 2.9 1.3 4.4 0 4.4-2.6 8.9-6.9 8.9-1.3 0-3.5-1.3-4.5-1.8-3.9-1.9-5.6-6.7-3.6-10.6s6.7-5.6 10.6-3.6c1.2.6 2.3 1.5 3.1 2.7z" fill="#c1b544"/><path d="m202.8 334.9c-9.8-11.8-16.6-25.8-19.8-40.8-.3-1.4-.6-2.9-.9-4.3-3.9-22.5-1-46.3 5-68.4 2.5-9 5.4-17.9 8.8-26.6.3-.4 5.6-6.9 16.2-10 3.9-1.2 8-1.7 12.1-1.7 0 0 7.4-32.3 31.5-50.2-5.5-2.2-10.5-4.2-14.7-5.7-31.5 15.6-40.8 56-40.8 56-4.1 0-8.2.6-12.1 1.7-10.6 3.2-15.9 9.6-16.2 10-3.4 8.7-6.3 17.6-8.8 26.6-6 22.2-9 46-5 68.4.2 1.5.5 2.9.9 4.3 3.1 15 9.9 29 19.8 40.8 25.6 30.6 57 40.5 83.9 36.3-20.4-3.2-41.6-14.5-59.9-36.4z" fill="#e8cbb8"/><path d="m168.7 443.9c-22.4-4.2-37.6-16-47-31.1-8.3-13.2-12.2-28.9-13-44.2-.8-18.4 3-36.1 9.6-48.1 4.7-8.5 10.2-13.5 16-16.1-7.3-2.6-15.9-3.7-24 0-5.8 2.6-11.3 7.6-16 16.1-6.6 12-10.4 29.8-9.6 48.1.7 15.3 4.7 31 13 44.2 9.5 15.1 24.6 26.9 47 31.1 9 1.6 18.1 2.1 27.2 1.4 0 0 .7-.2 1.9-.6-1.7-.2-3.4-.5-5.1-.8z" fill="#3a844a"/><path d="m143.1 209.2c-2.1 0-4.1.3-6.1 1-7.7-15.4-7.1-37 .5-53.3 3.9-8.5 9.8-15.5 17.4-19.4 2.7-1.4 5.6-2.5 8.6-3.3-10.9-3-22.5-1.8-32.6 3.3-7.6 3.9-13.4 10.9-17.4 19.4-7.6 16.3-8.2 37.9-.5 53.3 10.2-3.3 21.1 2.2 24.5 12.4.5 1.5.8 3 .9 4.6l1.1 13.8c.2 1 1.1 1.6 2.1 1.5.7-.1 1.3-.6 1.4-1.3l2.8-9.6c1.9-6.6 8.2-11 15.1-10.5-3-7.2-10-11.8-17.8-11.9z" fill="#d3a58c"/><path d="m350 273.4c-2.8 0-5-2.2-5-5 0-1.3.5-2.5 1.4-3.4 13.5-14.2 30.1-25.1 48.5-31.9 2.6-1 5.5.3 6.4 2.9 1 2.6-.3 5.5-2.9 6.4h-.1c-17 6.2-32.3 16.2-44.7 29.3-.9 1.1-2.2 1.7-3.6 1.7z" fill="#d19e82"/><path d="m396.6 282c-.8 0-1.5-.2-2.2-.5-11.6-5.8-26.3-6.4-26.5-6.4-2.8-.1-4.9-2.4-4.8-5.2s2.4-4.9 5.2-4.8c.7 0 17.1.7 30.6 7.5 2.5 1.2 3.5 4.2 2.2 6.7-.8 1.6-2.6 2.7-4.5 2.7z" fill="#d19e82"/><path d="m302.8 200.6c-.2 0-.4 0-.6 0-9.1-1.2-16.4-6.4-23.5-11.4-9.2-6.5-17.8-12.7-30.9-11.9-9.9.7-19.2 4.7-26.5 11.4-1.9 2-5.1 2-7.1.1-1.9-1.9-2-5-.2-7 9-8.6 20.7-13.7 33.2-14.5 16.6-1 27.6 6.9 37.3 13.8 6.6 4.7 12.3 8.8 18.9 9.6 2.7.3 4.7 2.9 4.3 5.6-.3 2.5-2.4 4.3-4.9 4.3z" fill="#6d7486"/><path d="m189.6 190.6c-2.8 0-5-2.2-5-5 0-.5.1-.9.2-1.3l2.9-10.3c.7-2.7 3.5-4.2 6.1-3.5 2.7.7 4.2 3.5 3.5 6.1l-2.9 10.3c-.6 2.2-2.5 3.7-4.8 3.7z" fill="#eadf53"/><path d="m316.4 56.7c-4.4 0-8 3.6-8 8s3.6 8 8 8 8-3.6 8-8c0-4.5-3.6-8-8-8z" fill="#ce8338"/><path d="m365.6 86.8c-4.4 0-8 3.6-8 8s3.6 8 8 8 8-3.6 8-8c0-4.4-3.6-8-8-8z" fill="#ce8338"/><g fill="#306d3c"><path d="m150.8 357.4c.6.2 1.2.4 1.8.4-1-3.6-1.8-7.3-2.2-11-6.8-1.9-20.8-4.5-34.5 1.4-2.5 1.1-3.7 4.1-2.6 6.6s4.1 3.7 6.6 2.6c14.7-6.4 30.7-.1 30.9 0z"/><path d="m130.8 377.4c-1.7 2.2-1.2 5.3 1 7s5.3 1.2 7-1l.1-.1c5.6-7.6 14.9-11.8 18.6-13.2-1.5-3-2.7-6.1-3.8-9.3-4.8 2-15.9 7.1-22.9 16.6z"/><path d="m307.4 400.5c-2.6 1.8-5.3 3.5-8.1 5.1l.3 3.2h-.1c.3 0 8.2-.2 14.8 11.3 1.4 2.4 4.4 3.2 6.8 1.9 2.4-1.4 3.2-4.4 1.9-6.8v-.1c-5-8.6-10.9-12.7-15.6-14.6z"/><path d="m352.3 409.1c-6.4-10.9-16.8-19-29-22.4-1.7 1.7-3.4 3.4-5.1 5-1.1 1-2.2 2-3.4 3 .7.5 1.5.8 2.3.9 11.2 1.9 21 8.7 26.6 18.6 1.4 2.4 4.4 3.2 6.8 1.9 2.4-1.4 3.2-4.4 1.9-6.8 0-.1 0-.2-.1-.2z"/></g><path d="m360.4 321c.4-.9.6-2 .4-3h-10c-2.5 6.8-1.7 14.3 2 20.5 1.4 2.4 4.5 3.1 6.9 1.7s3.1-4.5 1.7-6.9l-.1-.1c-2.2-3.6-2.5-8.2-.9-12.2z" fill="#e8cbb8"/><path d="m383.1 332c-.8-1.3-.5-6.2.6-10.2.4-1.3.2-2.6-.4-3.8h-8.7c-.2.3-.3.7-.5 1.1-.6 2-3.2 12.2.6 18.2 1.4 2.4 4.5 3.1 6.9 1.6s3-4.5 1.5-6.9z" fill="#e8cbb8"/><path id="XMLID_3_" d="m248.9 188.5c-.3 0-.5 0-.8 0-2 0-4 .1-6.1.3-17.9 2.2-32.4 20.5-32.4 20.5s12.1 14 36.6 12.4l7.3-.9c9.9-1.7 21.4-6 34.7-14.1-10.1-3.3-19.9-17.6-39.3-18.2z" fill="#b0b5ca"/><path id="XMLID_2_" d="m263.2 206.5c0 6.3-3.9 12-9.8 14.2-2.4.4-4.8.7-7.3.9-8.3-1-14.3-8.7-13.2-17 1-7.6 7.4-13.3 15.1-13.3h.8c8.1.5 14.5 7.1 14.4 15.2z" fill="#606060"/></svg>