<svg id="Layer_1" enable-background="new 0 0 512 512" height="512" viewBox="0 0 512 512" width="512" xmlns="http://www.w3.org/2000/svg"><g><path d="m275 42.8c-6.6-.5-10.5-.4-10.5-.4 3.2 14 3.2 25.6 1 35.2-1.2 5.6-3.4 11-6.3 16-3.1 5.2-7.1 9.8-11.8 13.7v.1s12.5 4.5 30.6 12.7l15.9-34.8z" fill="#e94253"/><path d="m267 78.4c4.6 0 8.4 3.8 8.4 8.4s-3.8 8.4-8.4 8.4-8.4-3.8-8.4-8.4c0-4.7 3.8-8.4 8.4-8.4z" fill="#ea983f"/><path d="m436 173.8c0 4.1-3.4 7.5-7.5 7.5 0 0 0 0-.1 0-92.3-1.2-120 112.4-120 112.4-2.6-12.5-9.7-23.7-19.8-31.5.2-.8 13-44.3 51.6-72.6 8.4-6.2 17.6-11.3 27.4-15.1 8.6-3.4 17.6-5.8 26.7-7.1 8.7-1.3 17.6-1.8 26.4-1.5 2.8.1 5.7.2 8.6.5 3.7.2 6.7 3.5 6.7 7.4z" fill="#d8a588"/><path d="m428.3 229.7c20 34.4 6.4 90.3-32.3 126.3-2.2 2.1-4.5 4.1-6.9 6-1-3.5-4.2-5.9-7.9-5.9-.9 0-1.8.1-2.6.5 8.1-6.7 12.7-16.7 12.6-27.3-.1-3.7-1.9-7.1-5-9.2l.3-.4c0-16.8-13.6-30.3-30.3-30.3-16.8 0-30.3 13.6-30.3 30.3l.2.3c-3.4 2.2-5.4 6-5.2 10 .4 9.7 3 22.6 14.1 27.9-2.5-.4-5 .9-6.2 3.2-1.1 2-2.6 4.8-4.6 8.1-.8 1.3-1.6 2.6-2.5 3.8-4.7 6.9-10.2 13.3-16.3 18.9-5.9 5.4-12.4 10.2-19.4 14.1-14 7.9-29.5 12.6-45.5 13.8-12.9 1-25.9-.5-38.3-4.2-13.1-3.9-25.3-10.4-35.9-19-32.4-26.1-31.6-60.6-26.7-82.1 1.5-7 3.8-13.8 6.8-20.3 3.1 15 9.9 29 19.8 40.8 53.3 63.6 131.2 37.7 142.6-18.2 1.5-7.6 1.5-15.5-.1-23 0 0 27.8-113.6 120-112.4-.4-.2-20 14.5-.4 48.3z" fill="#efbd9c"/><path d="m296.4 45.1c6.5 1.3 12.9 2.9 19.3 4.9 7.1 2.2 14 4.8 20.8 7.9 5.8 2.6 11.4 5.6 16.8 8.9 5.6 3.4 10.9 7.1 16 11.2 4.4 3.5 8.5 7.3 12.4 11.2 17.5 17.9 32 42.6 38.9 76.5v.1c-8.8-.3-17.7.2-26.4 1.5l-7.6-47.7c-.3-2.2-2.2-3.8-4.4-3.8l-41-.6-14.4-31.9c-.8-1.8-2.7-2.9-4.7-2.6l-29.5 3.7-19-42.4c7.6.6 15.2 1.6 22.8 3.1z" fill="#ea983f"/><path d="m386.5 119.6 7.6 47.7c-9.1 1.4-18.1 3.8-26.7 7.1-12.7-10.9-26.3-20.7-40.6-29.2l14.3-30.1 41 .6c2.2.1 4.1 1.7 4.4 3.9z" fill="#e94253"/><path d="m341.6 318.1h38.3c6.2 0 11.3 5 11.4 11.2.1 10.5-4.5 20.6-12.6 27.3-13.4 4.8-34.6 2.5-43.7 1.2-11-5.3-13.7-18.2-14.1-27.9-.2-4 1.8-7.8 5.2-10 1.8-1.2 4-1.8 6.2-1.8z" fill="#f5dac5"/><path d="m389.1 362c1.1 3.7-.4 7.6-3.8 9.6-.6.3-1.2.6-1.8 1-26.1 13.2-61.9.4-61.9.4.8-1.2 1.7-2.5 2.5-3.8 2-3.2 3.5-6 4.6-8.1 1.2-2.3 3.7-3.5 6.2-3.2 9 1.3 30.2 3.5 43.7-1.2.8-.3 1.7-.5 2.6-.5 3.7-.1 6.9 2.3 7.9 5.8z" fill="#f8d361"/><path d="m386.6 319.6-.3.4c-1.9-1.3-4.2-2-6.5-2h-47.5c-2.2 0-4.3.6-6.2 1.8l-.2-.3c0-16.8 13.6-30.3 30.3-30.4 16.8.2 30.4 13.7 30.4 30.5z" fill="#ea983f"/><path d="m381.5 56.5c3.9 5.4 5.3 12.1 3.8 18.6l-3 13.4-.7.7c-3.9-4-8-7.8-12.4-11.2 3.6-15.7 12.3-21.5 12.3-21.5z" fill="#f9d438"/><path d="m285.9 405.9c7-4 13.5-8.7 19.4-14.1 6.2-5.6 11.6-12 16.3-18.9s35.9 12.9 61.9-.4c1.4 13.9-1.3 27.9-7.6 40.3-7 13.6-17.8 24.7-30.1 33.4-15.4 10.8-32.9 18.4-51.3 22.2-36.2 7.1-64.3-21.1-64.3-21.1 8.3-6.5 12.3-17.2 10.1-27.6 16-1.2 31.6-5.9 45.6-13.8z" fill="#50b568"/><path d="m380.3 54.9c.4.5.8 1 1.2 1.5 0 0-8.7 5.8-12.3 21.4-5.1-4.1-10.4-7.8-16-11.2 3.1-14 11.1-21.1 15.1-22.9 4.4 3.4 8.4 7.1 12 11.2z" fill="#edb740"/><path d="m362.7 132.8c4.6 0 8.4 3.8 8.4 8.4s-3.8 8.4-8.4 8.4-8.4-3.8-8.4-8.4c0-4.7 3.8-8.4 8.4-8.4z" fill="#ea983f"/><path d="m368.1 15.1c12.3 20-2.9 26.4-2.9 26.4-5-3.4-10.4-6.3-16-8.6-1.1-.5-2.3-.9-3.5-1.4 0 .1 0-16.4 22.4-16.4z" fill="#eadf53"/><path d="m367.4 174.4c-9.7 3.8-18.9 8.9-27.4 15.1-32.7-30.6-86.2-52.9-111.8-62.5-8.7-3.2-14.2-5-14.5-5.1 8.8-2.1 21.6-6.6 32.3-15.6v.1s12.5 4.5 30.6 12.7c17.2 7.7 34 16.5 50.2 26.1 14.4 8.6 28 18.3 40.6 29.2z" fill="#ea983f"/><path d="m365.2 41.5c1.1.8 2.2 1.5 3.2 2.3-4.1 1.8-12 8.9-15.1 22.9-5.4-3.3-11.1-6.2-16.8-8.8.6-9.7 5.2-18.8 12.8-24.9 5.5 2.2 10.9 5.1 15.9 8.5z" fill="#f9d438"/><path d="m345.7 31.6c1.2.4 2.4.9 3.5 1.4-7.6 6.2-12.2 15.2-12.8 24.9-6.8-3.1-13.7-5.7-20.8-7.9 2.2-18 11-22.8 11.5-23.1 6.4 1 12.6 2.5 18.6 4.7z" fill="#edb740"/><path d="m326.7 83.3 14.4 31.9-14.3 30.1c-16.2-9.7-32.9-18.4-50.2-26.1l15.9-34.8 29.5-3.7c2-.3 3.9.8 4.7 2.6z" fill="#50b568"/><path d="m327.2 26.9c-.5.3-9.4 5.1-11.5 23.1-6.3-2-12.8-3.6-19.3-4.9 3.5-10.1 13.4-20 24-19.1 2.3.3 4.6.6 6.8.9z" fill="#f9d438"/><path d="m311.5 101.3c4.6 0 8.4 3.8 8.4 8.4s-3.8 8.4-8.4 8.4-8.4-3.8-8.4-8.4c0-4.6 3.8-8.4 8.4-8.4z" fill="#ea983f"/><path d="m263.6 330.8c2.9-1.8 5.3-4.1 7.1-7 3.7-5.4 5-10.1 4.9-14.2-.5-17.4-26.3-17.2-27.4.2-.4 7.2 3 14.9 15.4 21zm24.9-68.7c10.2 7.8 17.2 19 19.8 31.5 1.6 7.6 1.7 15.4.1 23-11.3 55.9-89.3 81.9-142.6 18.2-9.8-11.8-16.6-25.8-19.8-40.8-.3-1.4-.6-2.9-.9-4.3-3.9-22.5-1-46.3 5-68.4 2.5-9 5.4-17.9 8.8-26.6.3-.4 5.6-6.9 16.2-10 3.9-1.2 8-1.7 12.1-1.7 0 0 9.3-40.4 40.8-56 25.6 9.5 79.1 31.9 111.8 62.5-38.3 28.3-51.1 71.8-51.3 72.6z" fill="#f5dac5"/><path d="m255.5 493-19.1-8.6c-1.1-.5-2.2-1.1-3.2-1.8-10.7-7-14.1-21.1-7.9-32.2 1.7-.9 3.4-1.9 4.9-3.1s28.1 28.1 64.3 21.1l-7.8 14.2c-6.1 11.1-19.7 15.6-31.2 10.4z" fill="#f5dac5"/><path d="m275.7 309.7c.1 4.1-1.2 8.9-4.9 14.2-1.8 2.8-4.3 5.2-7.1 7-12.5-6.1-15.9-13.8-15.4-21 1.1-17.4 26.8-17.6 27.4-.2z" fill="#d8a588"/><path d="m214.8 123c-3.4.9-6.9 1.5-10.4 1.9 0-1.6-.5-3.1-1.3-4.4 0 0 37.3-3.5 29.6-51-40.1 7-36.2 47.5-36.2 47.5-4.4 0-8 3.6-7.9 8-1.1-4.5-1.8-9-2.2-13.6-5.5-66.5 75.1-78.8 75.1-78.8 1.1 3.5 2 6.9 2.8 10.1 3.2 14 3.2 25.6 1 35.2-1.2 5.6-3.4 11-6.3 16-3.1 5.2-7.1 9.8-11.8 13.7-10.9 8.8-23.7 13.2-32.4 15.4z" fill="#50b568"/><path d="m213.7 456.1c-13.8 6.8-30.6 1.2-37.4-12.6-.4-.7-.7-1.5-1-2.2l-.8-2c9.7-4.7 21.4-12.4 27.4-23.7 12.4 3.7 25.4 5.1 38.3 4.2 2.1 10.4-1.8 21.1-10.1 27.6-1.5 1.2-3.1 2.2-4.9 3.1-3.6 1.7-7.5 3.6-11.5 5.6z" fill="#f5dac5"/><path d="m232.6 69.4c7.7 47.5-29.6 51-29.6 51-1.5-2.2-3.9-3.5-6.6-3.5 0 0-3.9-40.5 36.2-47.5z" fill="#eadf53"/><path d="m213.8 122c-3.4.9-6.9 1.5-10.4 1.9l-11.5 7.1s-6 8.7-13.7 22.9c-7.2 13.2-13.6 26.9-19.1 40.9.3-.4 5.6-6.9 16.2-10 3.9-1.2 8-1.7 12.1-1.7 0 0 9.3-40.4 40.8-56-8.6-3.3-14.1-5-14.4-5.1z" fill="#e94253"/><path d="m71.8 368.6c-.8-18.4 3-36.1 9.6-48.1 4.7-8.5 10.2-13.5 16-16.1 19.7-8.8 41.9 10.1 41.9 10.1-4.8 21.5-5.6 56 26.7 82.1 10.6 8.6 22.8 15 35.9 19-6.1 11.3-17.8 19-27.4 23.7-5 2.5-10.2 4.5-15.5 6.1-9.1.7-18.2.2-27.2-1.4-22.4-4.2-37.6-16-47-31.1-8.3-13.3-12.3-29-13-44.3z" fill="#50b568"/><path d="m185.3 110.2h-.3c-1.3-.3-66.6-14.4-84.3 46.6 3.9-8.5 9.8-15.5 17.4-19.4 20.5-10.5 46.7-3.7 60.1 16.4 7.8-14.2 13.7-22.9 13.7-22.9z" fill="#d8a588"/><path d="m178.1 153.9c-7.2 13.2-13.6 26.9-19.1 40.9-3.4 8.7-6.3 17.6-8.8 26.6-7.6-1.7-15.2 2.7-17.4 10.2l-2.8 9.6c-.3 1-1.3 1.5-2.2 1.3-.7-.2-1.2-.8-1.3-1.4l-1.1-13.8c-.8-10.7-10.1-18.7-20.8-17.9-1.6.1-3.1.4-4.6.9-7.7-15.4-7.1-37 .5-53.3 3.9-8.5 9.8-15.5 17.4-19.4 20.6-10.6 46.8-3.9 60.2 16.3z" fill="#efbd9c"/><path d="m133 231.5c2.2-7.5 9.8-11.9 17.4-10.2-6 22.2-9 46-5 68.4-21.1 6.9-34.7 3-43.4-5.9-13.6-13.8-15.4-39.5-15-55.6.2-10.7 9-19.2 19.8-19.1 10 .2 18.3 8 19 17.9l1.1 13.8c.2 1 1.1 1.6 2.1 1.5.7-.1 1.3-.6 1.4-1.3z" fill="#f9dfcd"/><path d="m145.3 289.8c.2 1.5.5 2.9.9 4.3-3 6.5-5.3 13.3-6.8 20.3 0 0-22.3-18.9-41.9-10.1v-.1s-5.6-13.1 4.3-20.2l.2-.1c8.6 8.8 22.2 12.7 43.3 5.9z" fill="#f8d361"/><path d="m203 119.4c.9 1.3 1.3 2.9 1.3 4.4 0 4.4-2.6 8.9-6.9 8.9-1.3 0-3.5-1.3-4.5-1.8-3.9-1.9-5.6-6.7-3.6-10.6s6.7-5.6 10.6-3.6c1.2.6 2.3 1.5 3.1 2.7z" fill="#c1b544"/><path d="m189.9 334.9c-9.8-11.8-16.6-25.8-19.8-40.8-.3-1.4-.6-2.9-.9-4.3-3.9-22.5-1-46.3 5-68.4 2.5-9 5.4-17.9 8.8-26.6.3-.4 5.6-6.9 16.2-10 3.9-1.2 8-1.7 12.1-1.7 0 0 7.4-32.3 31.5-50.2-5.5-2.2-10.5-4.2-14.7-5.7-31.5 15.6-40.8 56-40.8 56-4.1 0-8.2.6-12.1 1.7-10.6 3.2-15.9 9.6-16.2 10-3.4 8.7-6.3 17.6-8.8 26.6-6 22.2-9 46-5 68.4.2 1.5.5 2.9.9 4.3 3.1 15 9.9 29 19.8 40.8 25.6 30.6 57 40.5 83.9 36.3-20.4-3.2-41.6-14.5-59.9-36.4z" fill="#e8cbb8"/><path d="m155.8 443.9c-22.4-4.2-37.6-16-47-31.1-8.3-13.2-12.2-28.9-13-44.2-.8-18.4 3-36.1 9.6-48.1 4.7-8.5 10.2-13.5 16-16.1-7.3-2.6-15.9-3.7-24 0-5.8 2.6-11.3 7.6-16 16.1-6.6 12-10.4 29.8-9.6 48.1.7 15.3 4.7 31 13 44.2 9.5 15.1 24.6 26.9 47 31.1 9 1.6 18.1 2.1 27.2 1.4 0 0 .7-.2 1.9-.6-1.7-.2-3.4-.5-5.1-.8z" fill="#3a844a"/><path d="m130.2 209.2c-2.1 0-4.1.3-6.1 1-7.7-15.4-7.1-37 .5-53.3 3.9-8.5 9.8-15.5 17.4-19.4 2.7-1.4 5.6-2.5 8.6-3.3-10.9-3-22.5-1.8-32.6 3.3-7.6 3.9-13.4 10.9-17.4 19.4-7.6 16.3-8.2 37.9-.5 53.3 10.2-3.3 21.1 2.2 24.5 12.4.5 1.5.8 3 .9 4.6l1.1 13.8c.2 1 1.1 1.6 2.1 1.5.7-.1 1.3-.6 1.4-1.3l2.8-9.6c1.9-6.6 8.2-11 15.1-10.5-3-7.2-10-11.8-17.8-11.9z" fill="#d3a58c"/><path id="XMLID_3_" d="m236 188.5c-.3 0-.5 0-.8 0-2 0-4 .1-6.1.3-17.9 2.2-32.4 20.5-32.4 20.5s12.1 14 36.6 12.4l7.3-.9c9.9-1.7 21.4-6 34.7-14.1-10.1-3.3-19.9-17.6-39.3-18.2z" fill="#b0b5ca"/><path id="XMLID_2_" d="m250.3 206.5c0 6.3-3.9 12-9.8 14.2-2.4.4-4.8.7-7.3.9-8.3-1-14.3-8.7-13.2-17 1-7.6 7.4-13.3 15.1-13.3h.8c8.1.5 14.5 7.1 14.4 15.2z" fill="#606060"/><g fill="#284268"><path d="m434.9 227.5c-14-24.1-5.7-36.3-2.6-39.7 3.7-.7 7-2.9 9-6.1 2.5-4 2.7-9 .6-13.2s-6.2-7-10.9-7.4c-1.4-.1-2.8-.2-4.2-.3-7.2-31.4-20.9-54.8-36.8-72.1l2.6-11.6c2-9-.4-18.5-6.4-25.4-2.7-3.1-6-6.5-10-9.8 1.2-1.6 2.3-3.5 3.1-5.8 2.2-6.8.6-14.7-4.7-23.4-1.1-1.8-3-2.9-5.1-2.9-16.1 0-23.8 7.6-26.8 14.7-6.2-1.8-13-3.1-20.4-3.8-12.1-1.1-22.7 7.9-28.1 18.2-11-1.9-19.9-2.5-25-2.7-.5-2-1.1-3.9-1.7-6-.9-2.8-3.7-4.6-6.6-4.1-1.9.3-47.1 7.5-69 39.9-7.5 11.1-11.3 23.8-11.4 37.8-7-.8-18.4-1.3-30.7 1.3-18.6 3.9-42.9 15.7-53.1 49.7-7.6 16.3-8.5 37-2.7 53-7 4.5-11.5 12.3-11.6 20.8-.6 28.6 5.6 45.4 12.9 55.4-4.2 5.7-4.4 12.6-3.4 17.9-5.5 3.6-10.2 9-14.2 16.2-13.3 24.3-15.7 67.7 3.5 98.3 10.4 16.5 31 35.7 70.9 35.7 2.1 0 4.3-.1 6.5-.2 2.1-.1 4.2-.5 6.3-1.2s4.9-1.7 8.1-3c3.8 7 10.1 12.6 17.6 15.5 3.9 1.5 8.1 2.3 12.2 2.3 5.1 0 10.1-1.1 14.8-3.4h.1c-.1 3.4.4 6.8 1.5 10.1 2.2 6.6 6.6 12.2 12.3 16 0 0 .1 0 .1.1 1.2.8 2.5 1.5 3.8 2.1l19 8.6c4 1.8 8.2 2.7 12.3 2.7 10.7 0 21.1-5.7 26.6-15.6l6.5-11.8c21.5-4.7 43.8-15.7 60.1-29.8 21.7-18.8 32.5-42.3 31.3-68.1 3.5-2.7 5.6-6.9 5.7-11.3 20.7-17.5 36-41.1 43.4-66.7 7.6-26 5.6-51.9-5.4-70.9zm-4.8-54.4c.7.1 1 .4 1.2.8.1.3.3.8-.1 1.5-.3.4-.7.6-1.3.6-39.9 0-74.4 19.8-99.7 58.5-10.1 15.4-16.8 30.7-20.9 41.8-3.2-5.8-7.4-11-12.3-15.3 2.9-7.9 10.9-27.3 26.8-45.8 26.9-31.6 62.7-45.7 106.3-42.1zm-200-38.6c24.6 9.3 71.1 29.1 102.1 55.6-7 5.7-12.9 11.8-17.9 17.6-15.2 17.9-23.6 36.1-27.5 46.1-3.1-1.7-6.4-3.2-9.9-4.3-16.6-5.5-34.4-3-48.9 6.8-14.1 9.5-23.1 24.7-24.2 40.8-1.1 16.7-9.9 20.1-10.9 20.4-2.2.5-3.9 2.1-4.4 4.4-.6 2.2.3 4.6 2.1 6 6.8 5.7 23 12.5 39.3 1.1 1.5 1.3 3.4 2.7 5.6 4.1 8 5.2 15.7 7.6 22.7 7 7.5-.7 14-4.8 18.9-11.9 4.1-6 6.1-12 5.9-17.8-.4-12.1-9.8-18.6-19-18.8-9.5-.1-19.6 6.2-20.4 18.7-.3 4.7.6 10.5 5 16.2-6.3-2.5-12-7.3-14.3-9.6s-5.9-2.4-8.3-.2c-7.5 6.8-14.7 7.1-19.8 5.8 4.4-4.6 8.7-12.2 9.5-24.7.8-12.4 7.9-24.2 18.9-31.7 11.4-7.7 25.4-9.6 38.4-5.3 22.5 7.4 35.7 31.3 30.8 55.5-4.8 23.7-23 42.3-47.4 48.5-29.5 7.5-61.2-4.8-84.7-32.9-13.4-16-20.4-36-21-59.6-.4-19.3 3.4-40.9 11.5-64.4 1.1-3.1 2.2-6.1 3.3-9.1 1.4-1.5 5.6-5.3 12.8-7.4h.1c2.9-.8 6.3-1.4 10.2-1.4 2.8 0 5.2-1.9 5.8-4.7.4-.4 8.9-35.8 35.7-50.8zm-24.6-20.7c-.8-.7-1.8-1.2-2.8-1.7.2-8.7 3.3-28.5 25.2-35.4.9 11.2-1.2 20.2-6.2 26.8-5.2 6.7-12.4 9.3-16.2 10.3zm152.2 60c-5.6 2.7-10.9 5.8-15.7 9-18.6-16.4-44.8-32.3-77.8-47.1-11.9-5.4-22.6-9.6-30.8-12.7 5-2.2 10.2-5.1 15.1-8.8 13.5 5.1 69.1 27.4 109.2 59.6zm-71.6-56.8 12-26.2 25.1-3.2 12.8 28.4-10.3 21.6c-14-8.1-27.7-15.1-39.6-20.6zm49.9 26.8 10.3-21.7 35.9.5 6.5 40.7c-6.6 1.3-12.8 3.1-18.6 5.1-10.5-8.9-22.2-17.2-34.1-24.6zm-80.3 167.5c.4-5.6 4.5-7.3 8.1-7.3h.2c1.6 0 7 .4 7.2 6.9.1 3.2-1.2 6.7-3.8 10.5-.9 1.3-1.8 2.4-2.7 3.3-9.5-5.6-9.2-11.3-9-13.4zm125.5-242.9c.3 2 .2 4.1-.2 6.2l-1 4.3c-.8-.7-1.7-1.5-2.5-2.2 1-3.4 2.4-6.1 3.7-8.3zm-11.7-16.3c1.9 1.6 3.6 3.2 5.2 4.8-2.3 2.7-5 6.6-7.2 12-1.9-1.4-3.9-2.7-5.8-4 2.1-6.5 5.4-10.6 7.8-12.8zm-3.4-29.9c2 4.1 2.7 7.6 1.9 10.3-.3 1.1-.9 2-1.5 2.6-3.7-2.3-7.8-4.5-12.4-6.4 1.4-2.6 4.6-5.8 12-6.5zm-14.3 18.6c2.8 1.3 5.4 2.7 7.8 4.2-3.1 3.2-6.2 7.7-8.5 13.7-2.3-1.2-4.6-2.4-6.8-3.5 1.4-6.9 5.1-11.8 7.5-14.4zm-21.7-6.7c3.5.6 6.7 1.4 9.8 2.3-2.6 3.4-5.2 8.1-6.7 13.8-3.2-1.3-6.3-2.4-9.3-3.5 1.6-7.3 4.5-11 6.2-12.6zm-14.4-.2c-1.3 2.6-2.5 5.7-3.4 9.4-1.9-.5-3.8-1-5.7-1.5 2.5-3.5 5.7-6.4 9.1-7.9zm15.5 28.5c20.2 8.5 37.2 20.3 50.8 35.2 15.5 17 26.4 38.2 32.5 63-4.8.1-9.4.4-13.9.9l-6.7-42c-.8-5.1-5.1-8.8-10.2-8.9l-37.2-.6-12.9-28.4c-1.9-4.2-6.3-6.7-10.9-6.1l-25.1 3.2-12.9-28.8c12.4 1.7 29 5.2 46.5 12.5zm-61.9 24c.1.2.2.4.2.6 0 .9-.5 1.7-1.2 2.1.3-1 .7-1.9 1-2.7zm-2.2 14.9c7.9 0 14.4-6.5 14.4-14.4 0-5.6-3.9-10.9-9-13.5.9-6.9.9-14.3-.2-22.1l15.2 33.9-12.3 26.8c-6.7-3-12.5-5.3-16.8-7 1.2-1.4 2.3-2.8 3.4-4.3 1.4.4 3.2.6 5.3.6zm-65.3-28.2c14.9-22.1 44-31 55.8-33.8 5.9 21.8 4.3 39.7-4.7 53.1-5.7 8.5-13.8 14.3-21.7 18.3 8-10.5 10.6-24.7 7.7-42.4-.3-1.6-1.1-3-2.4-3.9s-2.9-1.3-4.5-1c-23.5 4.1-33.5 18.7-37.7 30.2-.6 1.6-1.1 3.1-1.5 4.6.9-9.3 3.9-17.7 9-25.1zm-3 51.6c0 1.1-.9 2-1.9 2s-1.9-.9-1.9-2 .9-2 1.9-2 1.9.9 1.9 2zm-2.8 13.9h.8c5.8 0 10.7-3.5 12.9-8.6 1.5-.2 3.2-.6 5.3-1 .3.1.7.2 1.1.4-17.6 13.5-26.6 33.6-30.5 44.9-.4-2.2-2-4.1-4.3-4.8-.8-.2-1.7-.3-2.5-.1 7.2-14.5 13.9-25.5 17.2-30.8zm-44.2-21.3c12.3-2.6 23.7-1.7 29.4-.9.4 3 1 6.1 1.7 9.2.2 2.7 1.1 5.2 2.6 7.3-1.7 2.7-4.1 6.5-6.8 11.3-6.8-7.1-15.4-12.2-24.9-14.8-9.1-2.5-18.5-2.4-27.3 0 6.8-6 15.3-10 25.3-12.1zm-29.6 26.4c16.9-8.7 38.3-3.5 50.3 11.5-6.9 13-14.9 29.8-21.3 48.6-1.4 4.1-2.7 8.1-3.8 12.1-5.9.3-11.3 3.2-15 7.7-1.5-6.2-5.2-11.6-10.6-15.2-5-3.3-10.8-4.7-16.6-4.2-8-21.5.1-51.8 17-60.5zm-28 85.6c.1-5.7 3.8-10.8 9.2-12.5 3.9-1.3 8.2-.7 11.6 1.6 3.5 2.3 5.6 6 5.9 10.2l1.1 13.8c0 .2 0 .4.1.6.6 3.6 3.6 6.2 7.3 6.4 3.6.2 6.9-2.1 7.9-5.6l2.8-9.6c.6-2.1 2-3.8 3.7-4.9-3.5 15.3-5.2 29.8-4.9 43.3.1 4.8.5 9.4 1 13.9-12.4 3.2-22.3 2.1-29.5-3.2-14.8-11.3-16.5-38.7-16.2-54zm45.2 69.5c-.7 1.9-1.5 4.1-2.3 6.7-2.9-1.8-6.6-3.7-10.7-5.3h.6c4 0 8.1-.5 12.4-1.4zm-28.9-1.9c-2.2 0-4.4.1-6.6.5-.2 0-.4.1-.6.1-.1-1.4.1-3 .7-4.4 2 1.5 4.2 2.8 6.5 3.8zm50.6 142.8c-1.1.4-2.2.6-3.2.6-30.4 1.5-53.5-8.8-66.7-29.9-16.6-26.5-14.6-65.4-3.1-86.2 4.7-8.6 10.7-13.7 17.8-15 11.2-2.1 23 4.9 28.2 8.6-.7 3.9-1.3 8.2-1.6 12.6-.3 5-.3 9.9.2 14.6-7.6-1.7-19.9-3-32 2.3-3 1.3-4.4 4.9-3.1 7.9s4.9 4.4 7.9 3.1c12.5-5.5 26.1-1.3 29.4-.2.3 1 .5 2 .8 3-5.6 2.5-14.5 7.5-20.6 15.7-2 2.7-1.4 6.4 1.3 8.4 1.1.8 2.3 1.2 3.5 1.2 1.8 0 3.7-.8 4.8-2.5 4.3-5.8 10.8-9.6 15.2-11.6 5.3 11.2 13.2 21.2 23.8 29.7 9.2 7.4 19.5 13.2 30.3 17.4-10 12-27.2 18.4-32.9 20.3zm59.5-6.7c-2.9 1.6-3.9 5.3-2.2 8.2l3.3 5.8-4.4 2.2-4.9-7.9c-1.8-2.8-5.5-3.7-8.3-1.9s-3.7 5.5-1.9 8.3l3.7 5.9c-3.7.6-7.5.1-11.1-1.3-4.8-1.9-8.6-5.2-11.1-9.6 8.1-4.6 16.6-10.9 22.4-19.5 9.1 2.3 18.4 3.5 27.9 3.5h2.2c-.1 4.8-1.9 9.4-4.8 13.1l-2.7-4.6c-1.5-2.8-5.2-3.8-8.1-2.2zm16.5 34.4-3.9 6.6c-1.2-1.6-2.1-3.3-2.7-5.2-1.4-4.3-1.2-8.9.6-13 2.8 2.4 7.1 5.6 12.6 8.9-2.5-.7-5.2.4-6.6 2.7zm45.7 13.2c-3.7 6.6-11 10.2-18.2 9.3l2.8-8.4c1.1-3.1-.6-6.5-3.8-7.6-3.1-1.1-6.5.6-7.6 3.8l-2.7 8.1-10.3-4.8 4.4-7.4c1.4-2.4 1-5.4-.9-7.3 9.7 5.3 22.7 10.1 37.5 10.1h1.1zm69.2-44.9c-15.4 13.3-36.9 23.7-57.3 27.7-3.6.7-7.1 1-10.5 1-19.9 0-36.2-10.6-43.8-16.5 5.1-6.1 7.9-13.9 7.8-21.9 1.6-.2 3.2-.4 4.8-.7 12.6-2.1 24.6-6.4 35.5-12.4 2.3.4 7.9 2.1 12.9 10.7 1.1 1.9 3.1 3 5.2 3 1 0 2.1-.3 3-.8 2.9-1.7 3.8-5.3 2.2-8.2-3.5-6-7.4-9.9-11.2-12.4 2.7-1.9 5.2-4 7.7-6.1 4.9 1.2 16 5.1 23.5 17.7 1.1 1.9 3.1 2.9 5.2 2.9 1 0 2.1-.3 3.1-.8 2.9-1.7 3.8-5.4 2.1-8.2-7.1-11.9-16.8-17.9-24.2-21 2.6-2.8 5-5.8 7.3-8.9 9.6 2.7 32.9 8 53.9 1.4-.3 20.2-9.5 38.2-27.2 53.5zm31.8-68.5c-16.9 9.5-39.9 5.8-51.4 3 1.1-1.9 2.2-3.8 3.1-5.6 11.3 1.6 32.3 3.5 46.5-1.5.7-.2 1.2-.1 1.6.1.3.2.9.6 1.2 1.4.3 1-.1 2.1-1 2.6zm-6.7-15.1c-11.8 3.8-30.3 1.9-38.8.8-7.7-4.2-9.7-14.3-10-22.3-.1-1.5.5-2.9 1.5-4s2.4-1.6 3.9-1.6h1.8c-.2 4 .4 9.1 3.5 14.1 1.1 1.8 3.1 2.8 5.1 2.8 1.1 0 2.2-.3 3.1-.9 2.8-1.7 3.7-5.4 2-8.2-1.8-2.9-2-5.8-1.7-7.8h11.5c-.5 4-.4 9.1 1.9 12.9 1.1 1.8 3.1 2.8 5.1 2.8 1.1 0 2.2-.3 3.2-.9 2.8-1.8 3.7-5.4 1.9-8.2-.5-.9-.4-3.5.1-6.5h10.1c2.9 0 5.4 2.3 5.4 5.2.1 12.3-7.3 19.8-9.6 21.8zm-42.5-39.1c3.2-10 12.3-16.8 23.1-16.8s19.9 6.8 23.1 16.8zm57 41.1c-.1-.1-.2-.1-.3-.2 3.8-5.4 7.5-13.4 7.4-23.9-.1-4.5-1.8-8.5-4.7-11.6-1.1-19.1-16.9-34.4-36.3-34.4-19.2 0-35 15-36.2 33.9-.1.1-.2.2-.3.2-3.3 3.4-5.1 8-4.9 12.8.4 11.6 3.6 20.7 9.2 26.9-.2.4-.5.7-.7 1.1-1.3 2.5-2.8 5.1-4.4 7.7-15.3 24.7-40.6 41.7-69.4 46.6-28.4 4.8-57.5-2.7-79.8-20.6-19.3-15.6-28.4-36.1-26.8-61.1.4-6.5 1.5-12.5 2.8-17.6 3.8 9.3 9 17.9 15.5 25.6 21.3 25.5 48.9 39.4 76.6 39.4 6.8 0 13.6-.8 20.3-2.5 28.9-7.3 50.5-29.5 56.2-57.7 1.7-8.2 1.6-16.3.1-24.1 1.6-5.7 8.8-30 24.5-53.8 20.7-31.5 46.7-49 77.5-52.2-3.9 9.1-5.5 23.9 6.7 44.9 19.3 33.4 4.1 87.3-33 120.6z"/><path d="m389.4 235.8c-1.1-3.1-4.6-4.7-7.7-3.6-23.5 8.6-39.6 22.2-48.9 32.1-2.3 2.4-2.2 6.2.2 8.5 1.2 1.1 2.6 1.6 4.1 1.6 1.6 0 3.2-.6 4.4-1.9 8.5-9 23-21.3 44.3-29.1 3.2-1.1 4.8-4.5 3.6-7.6z"/><path d="m386.5 271.6c-13.7-6.9-30.3-7.6-31-7.6-3.3-.1-6.1 2.5-6.2 5.8s2.5 6.1 5.8 6.2c.1 0 14.8.6 26.1 6.3.9.4 1.8.6 2.7.6 2.2 0 4.3-1.2 5.4-3.3 1.3-2.9.1-6.5-2.8-8z"/><path d="m209.1 189.3c.1-.1 9.8-10.1 25.8-11.1 12.8-.8 21.3 5.3 30.3 11.8 7.2 5.1 14.6 10.4 23.9 11.6h.8c3 0 5.6-2.2 5.9-5.2.4-3.3-1.9-6.3-5.2-6.7-6.4-.8-12-4.8-18.5-9.5-9.8-7-21-15-38-14-20.7 1.2-33.3 14.2-33.8 14.8-2.3 2.4-2.2 6.2.2 8.5 2.5 2.3 6.3 2.2 8.6-.2z"/><path d="m193.6 214c.3.4 7.9 8.9 22.5 12.7 4.9 1.3 9.8 1.8 14.7 1.8 1.2 0 10.6-.5 12.8-1.2 12.7-2.4 24.6-7.9 33.9-13.4 1.1.2 2.2.3 3.4.3 3.3-.1 5.9-2.8 5.9-6.1-.1-3.3-2.8-5.9-6.1-5.9-.6 0-1.3-.1-1.9-.3-.2-.1-.4-.1-.5-.2-2.6-.9-5.6-3.1-9-5.6-8.7-6.3-20.6-14.8-39.4-12.5-20 2.5-35.7 21.8-36.4 22.7-1.9 2.3-1.8 5.5.1 7.7zm68.6-8.1c.7.5 1.5 1.1 2.2 1.6-2.4 1.2-4.7 2.3-7 3.2.2-1.1.3-2.2.3-3.3 0-1.7-.2-3.4-.6-5 1.8 1.1 3.5 2.3 5.1 3.5zm-25.6-7.7c5.1 0 9.2 4.1 9.2 9.2 0 3.8-2.3 7-5.5 8.5-1.8.3-3.5.5-5.2.6-4.4-.7-7.7-4.5-7.7-9.1 0-5.1 4.1-9.2 9.2-9.2zm-20.5 3.7c-.5 1.8-.8 3.6-.8 5.6 0 2.5.4 4.9 1.2 7.1-4.3-1.4-7.6-3.3-9.9-4.9 2.6-2.5 5.8-5.4 9.5-7.8z"/><path d="m312.5 64.6c0-4.9-4-9-9-9s-9 4-9 9 4 9 9 9 9-4 9-9zm-11.4 0c0-1.4 1.1-2.5 2.5-2.5s2.5 1.1 2.5 2.5-1.1 2.5-2.5 2.5-2.5-1.1-2.5-2.5z"/><path d="m352.8 103.7c4.9 0 9-4 9-9s-4-9-9-9-9 4-9 9 4 9 9 9zm0-11.4c1.4 0 2.5 1.1 2.5 2.5s-1.1 2.5-2.5 2.5-2.5-1.1-2.5-2.5 1.1-2.5 2.5-2.5z"/><path d="m313 96.2c-7.9 0-14.4 6.5-14.4 14.4s6.4 14.4 14.4 14.4 14.4-6.5 14.4-14.4-6.5-14.4-14.4-14.4zm0 16.8c-1.3 0-2.4-1.1-2.4-2.4s1.1-2.4 2.4-2.4 2.4 1.1 2.4 2.4-1.1 2.4-2.4 2.4z"/><path d="m378.5 142c0-7.9-6.5-14.4-14.4-14.4s-14.4 6.5-14.4 14.4 6.5 14.4 14.4 14.4 14.4-6.4 14.4-14.4zm-14.4 2.5c-1.3 0-2.4-1.1-2.4-2.4s1.1-2.4 2.4-2.4 2.4 1.1 2.4 2.4-1.1 2.4-2.4 2.4z"/></g></g></svg>