<svg id="Layer_1" enable-background="new 0 0 512 512" height="512" viewBox="0 0 512 512" width="512" xmlns="http://www.w3.org/2000/svg"><g id="XMLID_1_"><path id="XMLID_144_" d="m434.9 227.5c-14-24.1-5.7-36.3-2.6-39.7 3.7-.7 7-2.9 9-6.1 2.5-4 2.7-9 .6-13.2s-6.2-7-10.9-7.4c-1.4-.1-2.8-.2-4.2-.3-7.2-31.4-20.9-54.8-36.8-72.1l2.6-11.6c2-9-.4-18.5-6.4-25.4-2.7-3.1-6-6.5-10-9.8 1.2-1.6 2.3-3.5 3.1-5.8 2.2-6.8.6-14.7-4.7-23.4-1.1-1.8-3-2.9-5.1-2.9-16.1 0-23.8 7.6-26.8 14.7-6.2-1.8-13-3.1-20.4-3.8-12.1-1.1-22.7 7.9-28.1 18.2-11-1.9-19.9-2.5-25-2.7-.5-2-1.1-3.9-1.7-6-.9-2.8-3.7-4.6-6.6-4.1-1.9.3-47.1 7.5-69 39.9-7.5 11.1-11.3 23.8-11.4 37.8-7-.8-18.4-1.3-30.7 1.3-18.6 3.9-42.9 15.7-53.1 49.7-7.6 16.3-8.5 37-2.7 53-7 4.5-11.5 12.3-11.6 20.8-.6 28.6 5.6 45.4 12.9 55.4-4.2 5.7-4.4 12.6-3.4 17.9-5.5 3.6-10.2 9-14.2 16.2-13.3 24.3-15.7 67.7 3.5 98.3 10.4 16.5 31 35.7 70.9 35.7 2.1 0 4.3-.1 6.5-.2 2.1-.1 4.2-.5 6.3-1.2s4.9-1.7 8.1-3c3.8 7 10.1 12.6 17.6 15.5 3.9 1.5 8.1 2.3 12.2 2.3 5.1 0 10.1-1.1 14.8-3.4h.1c-.1 3.4.4 6.8 1.5 10.1 2.2 6.6 6.6 12.2 12.3 16 0 0 .1 0 .1.1 1.2.8 2.5 1.5 3.8 2.1l19 8.6c4 1.8 8.2 2.7 12.3 2.7 10.7 0 21.1-5.7 26.6-15.6l6.5-11.8c21.5-4.7 43.8-15.7 60.1-29.8 21.7-18.8 32.5-42.3 31.3-68.1 3.5-2.7 5.6-6.9 5.7-11.3 20.7-17.5 36-41.1 43.4-66.7 7.6-26 5.6-51.9-5.4-70.9zm-331 65.6c2.1 1.5 4.2 2.7 6.5 3.7-2.2 0-4.4.1-6.6.5-.2 0-.4.1-.6.1 0-1.3.1-2.8.7-4.3zm18.3-149.4c16.9-8.7 38.3-3.5 50.3 11.5-6.9 13-14.9 29.8-21.3 48.6-1.4 4.1-2.7 8.1-3.8 12.1-5.9.3-11.3 3.2-15 7.7-1.5-6.2-5.2-11.6-10.6-15.2-5-3.3-10.8-4.7-16.6-4.2-8-21.5.1-51.8 17-60.5zm59-27.4c.4 3 1 6.1 1.7 9.2.2 2.7 1.1 5.2 2.6 7.3-1.7 2.7-4.1 6.5-6.8 11.3-6.8-7.1-15.4-12.2-24.9-14.8-9.1-2.5-18.5-2.4-27.3 0 6.9-5.8 15.4-9.9 25.4-12 12.2-2.7 23.6-1.8 29.3-1zm76.4-77c5.9 21.8 4.3 39.7-4.7 53.1-5.7 8.5-13.8 14.3-21.7 18.3 8-10.5 10.6-24.7 7.7-42.4-.3-1.6-1.1-3-2.4-3.9s-2.9-1.3-4.5-1c-23.5 4.1-33.5 18.7-37.7 30.2-.6 1.6-1.1 3.1-1.5 4.6 1-9.3 3.9-17.7 9-25.1 14.9-22.2 44-31 55.8-33.8zm82.3-2.9c-2.6 3.4-5.2 8.1-6.7 13.8-3.2-1.3-6.3-2.4-9.3-3.5 1.7-7.4 4.6-11.1 6.3-12.7 3.4.7 6.6 1.5 9.7 2.4zm26.2-14.2c2 4.1 2.7 7.6 1.9 10.3-.3 1.1-.9 2-1.5 2.6-3.7-2.3-7.8-4.5-12.4-6.4 1.4-2.6 4.6-5.8 12-6.5zm-129 445.2-3.9 6.6c-1.2-1.6-2.1-3.3-2.7-5.2-1.4-4.3-1.2-8.9.6-13 2.8 2.4 7.1 5.6 12.6 8.9-2.5-.7-5.2.4-6.6 2.7zm32.2-381.1c.1.2.2.4.2.6 0 .9-.5 1.7-1.2 2.1.3-.9.7-1.8 1-2.7zm-118.3 186c-.4-19.3 3.4-40.9 11.5-64.4 1.1-3.1 2.2-6.1 3.3-9.1 1.4-1.5 5.6-5.3 12.8-7.4h.1c2.9-.8 6.3-1.4 10.2-1.4 2.8 0 5.2-1.9 5.8-4.7.1-.4 8.5-35.8 35.4-50.7 24.6 9.3 71.1 29.1 102.1 55.6-7 5.7-12.9 11.8-17.9 17.6-15.2 17.9-23.6 36.1-27.5 46.1-3.1-1.7-6.4-3.2-9.9-4.3-16.6-5.5-34.4-3-48.9 6.8-14.1 9.5-23.1 24.7-24.2 40.8-1.1 16.7-9.9 20.1-10.9 20.4-2.2.5-3.9 2.1-4.4 4.4-.6 2.2.3 4.6 2.1 6 6.8 5.7 23 12.5 39.3 1.1 1.5 1.3 3.4 2.7 5.6 4.1 8 5.2 15.7 7.6 22.7 7 7.5-.7 14-4.8 18.9-11.9 4.1-6 6.1-12 5.9-17.8-.4-12.1-9.8-18.6-19-18.8-9.5-.1-19.6 6.2-20.4 18.7-.3 4.7.6 10.5 5 16.2-6.3-2.5-12-7.3-14.3-9.6s-5.9-2.4-8.3-.2c-7.5 6.8-14.7 7.1-19.8 5.8 4.4-4.6 8.7-12.2 9.5-24.7.8-12.4 7.9-24.2 18.9-31.7 11.4-7.7 25.4-9.6 38.4-5.3 22.5 7.4 35.7 31.3 30.8 55.5-4.8 23.7-23 42.3-47.4 48.5-29.5 7.5-61.2-4.8-84.7-32.9-13.1-16-20.2-36.1-20.7-59.7zm97.5-158.2c13.5 5.1 69.1 27.5 109.2 59.6-5.6 2.7-10.9 5.8-15.7 9-18.6-16.4-44.8-32.3-77.8-47.1-11.9-5.4-22.6-9.6-30.8-12.7 5.1-2.2 10.2-5.1 15.1-8.8zm74.6-26.5 12.8 28.4-10.3 21.6c-14-8.1-27.7-15.1-39.6-20.6l12-26.2zm59.1 35 6.5 40.7c-6.6 1.3-12.8 3.1-18.6 5.1-10.6-9-22.3-17.3-34.2-24.7l10.3-21.7zm-185.4.1c1.1 0 1.9.9 1.9 2s-.9 2-1.9 2-1.9-.9-1.9-2 .8-2 1.9-2zm8.7-8.9c-.8-.7-1.8-1.2-2.8-1.7.2-8.7 3.3-28.5 25.2-35.4.9 11.2-1.2 20.2-6.2 26.8-5.2 6.6-12.4 9.3-16.2 10.3zm-8.7 24.8c5.8 0 10.7-3.5 12.9-8.6 1.5-.2 3.2-.6 5.3-1 .3.1.7.2 1.1.4-17.6 13.5-26.6 33.6-30.5 44.9-.4-2.2-2-4.1-4.3-4.8-.8-.2-1.7-.3-2.5-.1 7.3-14.5 14-25.5 17.3-30.8zm58.9 172.7c.4-5.6 4.5-7.3 8.1-7.3h.2c1.6 0 7 .4 7.2 6.9.1 3.2-1.2 6.7-3.8 10.5-.9 1.3-1.8 2.4-2.7 3.3-9.5-5.6-9.2-11.4-9-13.4zm19.4-199.2c-6.7-3-12.5-5.3-16.8-7 1.2-1.4 2.3-2.8 3.4-4.3 1.5.3 3.4.6 5.4.6 7.9 0 14.4-6.5 14.4-14.4 0-5.6-3.9-10.9-9-13.5.9-6.9.9-14.3-.2-22.1l15.2 33.9zm-135.7 186.7c-.7 1.9-1.5 4.1-2.3 6.7-2.9-1.8-6.6-3.7-10.7-5.3h.6c4-.1 8.1-.5 12.4-1.4zm195.2 14.2c3.2-10 12.3-16.8 23.1-16.8s19.9 6.8 23.1 16.8zm-4.8 13.6c1-1.1 2.4-1.6 3.9-1.6h1.8c-.2 4 .4 9.1 3.5 14.1 1.1 1.8 3.1 2.8 5.1 2.8 1.1 0 2.2-.3 3.1-.9 2.8-1.7 3.7-5.4 2-8.2-1.8-2.9-2-5.8-1.7-7.8h11.5c-.5 4-.4 9.1 1.9 12.9 1.1 1.8 3.1 2.8 5.1 2.8 1.1 0 2.2-.3 3.2-.9 2.8-1.8 3.7-5.4 1.9-8.2-.5-.9-.4-3.5.1-6.5h10.1c2.9 0 5.4 2.3 5.4 5.2.2 12.4-7.3 19.9-9.6 21.8-11.8 3.8-30.3 1.9-38.8.8-7.7-4.2-9.7-14.3-10-22.3 0-1.5.5-2.9 1.5-4zm2.6 43.6c1.1-1.9 2.2-3.8 3.1-5.6 11.3 1.6 32.3 3.5 46.5-1.5.7-.2 1.2-.1 1.6.1.3.2.9.6 1.2 1.4.3 1-.1 2.1-1 2.6-16.9 9.5-39.8 5.8-51.4 3zm98.8-194.8c-.3.4-.7.6-1.3.6-39.9 0-74.4 19.8-99.7 58.5-10.1 15.4-16.8 30.7-20.9 41.8-3.2-5.8-7.4-11-12.3-15.3 2.9-7.9 10.9-27.3 26.8-45.8 27-31.5 62.8-45.7 106.4-42 .7.1 1 .4 1.2.8 0 .2.1.7-.2 1.4zm-30.6-13.9-6.7-42c-.8-5.1-5.1-8.8-10.2-8.9l-37.2-.6-12.9-28.4c-1.9-4.2-6.3-6.7-10.9-6.1l-25.1 3.2-12.9-28.8c12.3 1.7 29 5.2 46.4 12.5 20.2 8.5 37.2 20.3 50.8 35.2 15.5 17 26.4 38.2 32.5 63-4.7.1-9.3.4-13.8.9zm-19.7-86.9-1 4.3c-.8-.7-1.7-1.5-2.5-2.2 1.1-3.4 2.4-6.2 3.7-8.3.3 2.1.3 4.2-.2 6.2zm-29.7-15.9c-2.3-1.2-4.6-2.4-6.8-3.5 1.4-6.9 5-11.8 7.5-14.4 2.8 1.3 5.4 2.7 7.8 4.2-3.1 3.2-6.2 7.7-8.5 13.7zm10.5 6.2c2.2-6.6 5.5-10.6 7.9-12.8 1.9 1.6 3.6 3.2 5.2 4.8-2.3 2.7-5 6.6-7.2 12-2-1.4-4-2.7-5.9-4zm-49.3-21.6c-1.9-.5-3.8-1-5.7-1.5 2.4-3.5 5.6-6.4 9.1-7.9-1.4 2.6-2.5 5.6-3.4 9.4zm-197.3 175.1c3.5 2.3 5.6 6 5.9 10.2l1.1 13.8c0 .2 0 .4.1.6.6 3.6 3.6 6.2 7.3 6.4 3.6.2 6.9-2.1 7.9-5.6l2.8-9.6c.6-2.1 2-3.8 3.7-4.9-3.5 15.3-5.2 29.8-4.9 43.3.1 4.8.5 9.4 1 13.9-12.4 3.2-22.3 2.1-29.5-3.2-15-11.1-16.6-38.5-16.3-53.8.1-5.7 3.8-10.8 9.2-12.5 4-1.5 8.2-.9 11.7 1.4zm-9.1 90.8c11.2-2.1 23 4.9 28.2 8.6-.7 3.9-1.3 8.2-1.6 12.6-.3 5-.3 9.9.2 14.6-7.6-1.7-19.9-3-32 2.3-3 1.3-4.4 4.9-3.1 7.9s4.9 4.4 7.9 3.1c12.5-5.5 26.1-1.3 29.4-.2.3 1 .5 2 .8 3-5.6 2.5-14.5 7.5-20.6 15.7-2 2.7-1.4 6.4 1.3 8.4 1.1.8 2.3 1.2 3.5 1.2 1.8 0 3.7-.8 4.8-2.5 4.3-5.8 10.8-9.6 15.2-11.6 5.3 11.2 13.2 21.2 23.8 29.7 9.2 7.4 19.5 13.2 30.3 17.4-10 12-27.3 18.4-33 20.2-1.1.4-2.2.6-3.2.6-30.4 1.5-53.5-8.8-66.7-29.9-16.6-26.5-14.6-65.4-3.1-86.2 4.7-8.5 10.7-13.6 17.9-14.9zm100.2 114.1c9.1 2.3 18.4 3.5 27.9 3.5h2.2c-.1 4.8-1.9 9.4-4.8 13.1l-2.7-4.6c-1.6-2.9-5.3-3.9-8.2-2.2-2.9 1.6-3.9 5.3-2.2 8.2l3.3 5.8-4.4 2.2-4.9-7.9c-1.8-2.8-5.5-3.7-8.3-1.9s-3.7 5.5-1.9 8.3l3.7 5.9c-3.7.6-7.5.1-11.1-1.3-4.8-1.9-8.6-5.2-11.1-9.6 8.1-4.6 16.6-10.9 22.5-19.5zm57.5 50.6c-3.1-1.1-6.5.6-7.6 3.8l-2.7 8.1-10.4-4.8 4.4-7.4c1.4-2.4 1-5.4-.9-7.3 9.7 5.3 22.7 10.1 37.5 10.1h1.1l-2.3 4.2c-3.7 6.6-11 10.2-18.2 9.3l2.8-8.4c1.1-3.2-.6-6.6-3.7-7.6zm31.1-10.6c-3.6.7-7.1 1-10.5 1-19.9 0-36.2-10.6-43.8-16.5 5.1-6.1 7.9-13.9 7.8-21.9 1.6-.2 3.2-.4 4.8-.7 12.6-2.1 24.6-6.4 35.5-12.4 2.3.4 7.9 2.1 12.9 10.7 1.1 1.9 3.1 3 5.2 3 1 0 2.1-.3 3-.8 2.9-1.7 3.8-5.3 2.2-8.2-3.5-6-7.4-9.9-11.2-12.4 2.7-1.9 5.2-4 7.7-6.1 4.9 1.2 16 5.1 23.5 17.7 1.1 1.9 3.1 2.9 5.2 2.9 1 0 2.1-.3 3.1-.8 2.9-1.7 3.8-5.4 2.1-8.2-7.1-11.9-16.8-17.9-24.2-21 2.6-2.8 5-5.8 7.3-8.9 9.6 2.7 32.9 8 53.9 1.4-.4 20.3-9.6 38.3-27.3 53.6-15.4 13.3-36.8 23.7-57.2 27.6zm96.8-109.2c-.1-.1-.2-.1-.3-.2 3.8-5.4 7.5-13.4 7.4-23.9-.1-4.5-1.8-8.5-4.7-11.6-1.1-19.1-16.9-34.4-36.3-34.4-19.2 0-35 15-36.2 33.9-.1.1-.2.2-.3.2-3.3 3.4-5.1 8-4.9 12.8.4 11.6 3.6 20.7 9.2 26.9-.2.4-.5.7-.7 1.1-1.3 2.5-2.8 5.1-4.4 7.7-15.3 24.7-40.6 41.7-69.4 46.6-28.4 4.8-57.5-2.7-79.8-20.6-19.3-15.6-28.4-36.1-26.8-61.1.4-6.5 1.5-12.5 2.8-17.6 3.8 9.3 9 17.9 15.5 25.6 21.3 25.5 48.9 39.4 76.6 39.4 6.8 0 13.6-.8 20.3-2.5 28.9-7.3 50.5-29.5 56.2-57.7 1.7-8.2 1.6-16.3.1-24.1 1.6-5.7 8.8-30 24.5-53.8 20.7-31.5 46.7-49 77.5-52.2-3.9 9.1-5.5 23.9 6.7 44.9 19.3 33.4 4.1 87.3-33 120.6z"/><path id="XMLID_177_" d="m389.4 235.7c-1.1-3.1-4.6-4.7-7.7-3.6-23.5 8.6-39.6 22.2-48.9 32.1-2.3 2.4-2.2 6.2.2 8.5 1.2 1.1 2.6 1.6 4.1 1.6 1.6 0 3.2-.6 4.4-1.9 8.5-9 23-21.3 44.3-29.1 3.2-1 4.8-4.4 3.6-7.6z"/><path id="XMLID_178_" d="m386.5 271.6c-13.7-6.9-30.3-7.6-31-7.6-3.3-.1-6.1 2.5-6.2 5.8s2.5 6.1 5.8 6.2c.1 0 14.8.6 26.1 6.3.9.4 1.8.6 2.7.6 2.2 0 4.3-1.2 5.4-3.3 1.3-2.9.1-6.5-2.8-8z"/><path id="XMLID_179_" d="m209.1 189.3c.1-.1 9.8-10.1 25.8-11.1 12.8-.8 21.3 5.3 30.3 11.8 7.2 5.1 14.6 10.4 23.9 11.6h.8c3 0 5.6-2.2 5.9-5.2.4-3.3-1.9-6.3-5.2-6.7-6.4-.8-12-4.8-18.5-9.5-9.8-7-21-15-38-14-20.7 1.2-33.3 14.2-33.8 14.8-2.3 2.4-2.2 6.2.2 8.5 2.5 2.3 6.3 2.2 8.6-.2z"/><path id="XMLID_182_" d="m216.1 226.8c4.9 1.3 9.8 1.8 14.7 1.8 1.2 0 10.6-.5 12.8-1.2 12.7-2.4 24.6-7.9 33.9-13.4 1.1.2 2.2.3 3.4.3 3.3-.1 5.9-2.8 5.9-6.1-.1-3.3-2.8-5.9-6.1-5.9-.6 0-1.3-.1-1.9-.3-.2-.1-.4-.1-.5-.2-2.6-.9-5.6-3.1-9-5.6-8.7-6.3-20.6-14.8-39.4-12.5-20 2.5-35.7 21.8-36.4 22.7-1.8 2.3-1.7 5.5.2 7.7.2.3 7.7 8.8 22.4 12.7zm19-10.3c-4.4-.7-7.7-4.5-7.7-9.1 0-5.1 4.1-9.2 9.2-9.2s9.2 4.1 9.2 9.2c0 3.8-2.3 7-5.5 8.5-1.8.2-3.6.5-5.2.6zm22.4-5.8c.2-1.1.3-2.2.3-3.3 0-1.7-.2-3.4-.6-5 1.7 1.1 3.4 2.4 5.1 3.6.7.5 1.5 1.1 2.2 1.6-2.4 1.1-4.8 2.2-7 3.1zm-41.4-8.9c-.5 1.8-.8 3.6-.8 5.6 0 2.5.4 4.9 1.2 7.1-4.3-1.4-7.6-3.3-9.9-4.9 2.6-2.5 5.8-5.3 9.5-7.8z"/><path id="XMLID_187_" d="m303.5 55.7c-4.9 0-9 4-9 9s4 9 9 9 9-4 9-9-4-9-9-9zm0 11.4c-1.4 0-2.5-1.1-2.5-2.5s1.1-2.5 2.5-2.5 2.5 1.1 2.5 2.5-1.1 2.5-2.5 2.5z"/><path id="XMLID_190_" d="m352.8 85.8c-4.9 0-9 4-9 9s4 9 9 9 9-4 9-9-4.1-9-9-9zm0 11.4c-1.4 0-2.5-1.1-2.5-2.5s1.1-2.5 2.5-2.5 2.5 1.1 2.5 2.5c-.1 1.4-1.2 2.5-2.5 2.5z"/><path id="XMLID_193_" d="m313 125c7.9 0 14.4-6.5 14.4-14.4s-6.5-14.4-14.4-14.4-14.4 6.5-14.4 14.4 6.4 14.4 14.4 14.4zm0-16.8c1.3 0 2.4 1.1 2.4 2.4s-1.1 2.4-2.4 2.4-2.4-1.1-2.4-2.4 1-2.4 2.4-2.4z"/><path id="XMLID_196_" d="m364.1 156.4c7.9 0 14.4-6.5 14.4-14.4s-6.5-14.4-14.4-14.4-14.4 6.5-14.4 14.4 6.5 14.4 14.4 14.4zm0-16.8c1.3 0 2.4 1.1 2.4 2.4s-1.1 2.4-2.4 2.4-2.4-1.1-2.4-2.4 1.1-2.4 2.4-2.4z"/></g></svg>